<mxfile host="app.diagrams.net" modified="2022-08-20T13:35:32.770Z" agent="5.0 (Windows)" etag="bTMHkf9nfAYiTlaM9k98" version="20.2.3" type="github">
  <diagram id="C5RBs43oDa-KdzZeNtuy" name="FlowChart XYZ Digital Lending">
    <mxGraphModel dx="2500" dy="2054" grid="1" gridSize="10" guides="1" tooltips="1" connect="1" arrows="1" fold="1" page="1" pageScale="1" pageWidth="827" pageHeight="1169" math="0" shadow="0">
      <root>
        <mxCell id="WIyWlLk6GJQsqaUBKTNV-0" />
        <mxCell id="WIyWlLk6GJQsqaUBKTNV-1" parent="WIyWlLk6GJQsqaUBKTNV-0" />
        <mxCell id="RgRpfeF5wvHuGxw3iGH3-169" style="edgeStyle=orthogonalEdgeStyle;rounded=0;orthogonalLoop=1;jettySize=auto;html=1;exitX=0.5;exitY=1;exitDx=0;exitDy=0;endArrow=classic;endFill=1;" edge="1" parent="WIyWlLk6GJQsqaUBKTNV-1" source="WIyWlLk6GJQsqaUBKTNV-3" target="WIyWlLk6GJQsqaUBKTNV-6">
          <mxGeometry relative="1" as="geometry" />
        </mxCell>
        <mxCell id="WIyWlLk6GJQsqaUBKTNV-3" value="Login" style="rounded=1;whiteSpace=wrap;html=1;fontSize=12;glass=0;strokeWidth=1;shadow=0;" parent="WIyWlLk6GJQsqaUBKTNV-1" vertex="1">
          <mxGeometry x="-600" y="-730" width="120" height="40" as="geometry" />
        </mxCell>
        <mxCell id="WIyWlLk6GJQsqaUBKTNV-5" value="Tidak" style="edgeStyle=orthogonalEdgeStyle;rounded=0;html=1;jettySize=auto;orthogonalLoop=1;fontSize=11;endArrow=block;endFill=0;endSize=8;strokeWidth=1;shadow=0;labelBackgroundColor=none;" parent="WIyWlLk6GJQsqaUBKTNV-1" source="WIyWlLk6GJQsqaUBKTNV-6" target="WIyWlLk6GJQsqaUBKTNV-7" edge="1">
          <mxGeometry y="10" relative="1" as="geometry">
            <mxPoint as="offset" />
          </mxGeometry>
        </mxCell>
        <mxCell id="RgRpfeF5wvHuGxw3iGH3-170" value="Ya" style="edgeStyle=orthogonalEdgeStyle;rounded=0;orthogonalLoop=1;jettySize=auto;html=1;exitX=0.5;exitY=1;exitDx=0;exitDy=0;entryX=0.5;entryY=0;entryDx=0;entryDy=0;endArrow=classic;endFill=1;" edge="1" parent="WIyWlLk6GJQsqaUBKTNV-1" source="WIyWlLk6GJQsqaUBKTNV-6" target="WIyWlLk6GJQsqaUBKTNV-10">
          <mxGeometry relative="1" as="geometry" />
        </mxCell>
        <mxCell id="WIyWlLk6GJQsqaUBKTNV-6" value="Sudah Daftar?" style="rhombus;whiteSpace=wrap;html=1;shadow=0;fontFamily=Helvetica;fontSize=12;align=center;strokeWidth=1;spacing=6;spacingTop=-4;" parent="WIyWlLk6GJQsqaUBKTNV-1" vertex="1">
          <mxGeometry x="-590" y="-590" width="100" height="80" as="geometry" />
        </mxCell>
        <mxCell id="RgRpfeF5wvHuGxw3iGH3-6" value="" style="edgeStyle=orthogonalEdgeStyle;rounded=0;orthogonalLoop=1;jettySize=auto;html=1;" edge="1" parent="WIyWlLk6GJQsqaUBKTNV-1" source="WIyWlLk6GJQsqaUBKTNV-7" target="RgRpfeF5wvHuGxw3iGH3-5">
          <mxGeometry relative="1" as="geometry" />
        </mxCell>
        <mxCell id="WIyWlLk6GJQsqaUBKTNV-7" value="Melakukan pendaftaran" style="rounded=1;whiteSpace=wrap;html=1;fontSize=12;glass=0;strokeWidth=1;shadow=0;" parent="WIyWlLk6GJQsqaUBKTNV-1" vertex="1">
          <mxGeometry x="-440" y="-570" width="120" height="40" as="geometry" />
        </mxCell>
        <mxCell id="WIyWlLk6GJQsqaUBKTNV-9" value="Ya" style="edgeStyle=orthogonalEdgeStyle;rounded=0;html=1;jettySize=auto;orthogonalLoop=1;fontSize=11;endArrow=block;endFill=0;endSize=8;strokeWidth=1;shadow=0;labelBackgroundColor=none;" parent="WIyWlLk6GJQsqaUBKTNV-1" source="WIyWlLk6GJQsqaUBKTNV-10" target="WIyWlLk6GJQsqaUBKTNV-12" edge="1">
          <mxGeometry y="10" relative="1" as="geometry">
            <mxPoint as="offset" />
          </mxGeometry>
        </mxCell>
        <mxCell id="RgRpfeF5wvHuGxw3iGH3-31" value="Tidak" style="edgeStyle=orthogonalEdgeStyle;rounded=0;orthogonalLoop=1;jettySize=auto;html=1;" edge="1" parent="WIyWlLk6GJQsqaUBKTNV-1" source="WIyWlLk6GJQsqaUBKTNV-10" target="RgRpfeF5wvHuGxw3iGH3-30">
          <mxGeometry relative="1" as="geometry" />
        </mxCell>
        <mxCell id="WIyWlLk6GJQsqaUBKTNV-10" value="Login Biometric aktif?" style="rhombus;whiteSpace=wrap;html=1;shadow=0;fontFamily=Helvetica;fontSize=12;align=center;strokeWidth=1;spacing=6;spacingTop=-4;" parent="WIyWlLk6GJQsqaUBKTNV-1" vertex="1">
          <mxGeometry x="-590" y="-400" width="100" height="80" as="geometry" />
        </mxCell>
        <mxCell id="RgRpfeF5wvHuGxw3iGH3-165" style="edgeStyle=orthogonalEdgeStyle;rounded=0;orthogonalLoop=1;jettySize=auto;html=1;exitX=0.5;exitY=1;exitDx=0;exitDy=0;entryX=0.352;entryY=0.437;entryDx=0;entryDy=0;entryPerimeter=0;endArrow=classic;endFill=1;" edge="1" parent="WIyWlLk6GJQsqaUBKTNV-1" source="WIyWlLk6GJQsqaUBKTNV-12">
          <mxGeometry relative="1" as="geometry">
            <mxPoint x="-563.5" y="-205" as="targetPoint" />
          </mxGeometry>
        </mxCell>
        <mxCell id="WIyWlLk6GJQsqaUBKTNV-12" value="Login Dengan Biometriks" style="rounded=1;whiteSpace=wrap;html=1;fontSize=12;glass=0;strokeWidth=1;shadow=0;" parent="WIyWlLk6GJQsqaUBKTNV-1" vertex="1">
          <mxGeometry x="-406" y="-380" width="120" height="40" as="geometry" />
        </mxCell>
        <mxCell id="RgRpfeF5wvHuGxw3iGH3-8" value="" style="edgeStyle=orthogonalEdgeStyle;rounded=0;orthogonalLoop=1;jettySize=auto;html=1;" edge="1" parent="WIyWlLk6GJQsqaUBKTNV-1" source="RgRpfeF5wvHuGxw3iGH3-5" target="RgRpfeF5wvHuGxw3iGH3-7">
          <mxGeometry relative="1" as="geometry" />
        </mxCell>
        <mxCell id="RgRpfeF5wvHuGxw3iGH3-5" value="input data diri, email, nomor telepon" style="rounded=1;whiteSpace=wrap;html=1;glass=0;strokeWidth=1;shadow=0;" vertex="1" parent="WIyWlLk6GJQsqaUBKTNV-1">
          <mxGeometry x="-260" y="-580" width="120" height="60" as="geometry" />
        </mxCell>
        <mxCell id="RgRpfeF5wvHuGxw3iGH3-10" value="" style="edgeStyle=orthogonalEdgeStyle;rounded=0;orthogonalLoop=1;jettySize=auto;html=1;" edge="1" parent="WIyWlLk6GJQsqaUBKTNV-1" source="RgRpfeF5wvHuGxw3iGH3-7" target="RgRpfeF5wvHuGxw3iGH3-9">
          <mxGeometry relative="1" as="geometry" />
        </mxCell>
        <mxCell id="RgRpfeF5wvHuGxw3iGH3-7" value="Upload Foto dan KTP" style="rounded=1;whiteSpace=wrap;html=1;glass=0;strokeWidth=1;shadow=0;" vertex="1" parent="WIyWlLk6GJQsqaUBKTNV-1">
          <mxGeometry x="-80" y="-580" width="120" height="60" as="geometry" />
        </mxCell>
        <mxCell id="RgRpfeF5wvHuGxw3iGH3-20" value="" style="edgeStyle=orthogonalEdgeStyle;rounded=0;orthogonalLoop=1;jettySize=auto;html=1;" edge="1" parent="WIyWlLk6GJQsqaUBKTNV-1" source="RgRpfeF5wvHuGxw3iGH3-9" target="RgRpfeF5wvHuGxw3iGH3-19">
          <mxGeometry relative="1" as="geometry" />
        </mxCell>
        <mxCell id="RgRpfeF5wvHuGxw3iGH3-9" value="Aktivasi akun" style="rounded=1;whiteSpace=wrap;html=1;glass=0;strokeWidth=1;shadow=0;" vertex="1" parent="WIyWlLk6GJQsqaUBKTNV-1">
          <mxGeometry x="110" y="-580" width="120" height="60" as="geometry" />
        </mxCell>
        <mxCell id="RgRpfeF5wvHuGxw3iGH3-27" value="Ya" style="edgeStyle=orthogonalEdgeStyle;rounded=0;orthogonalLoop=1;jettySize=auto;html=1;" edge="1" parent="WIyWlLk6GJQsqaUBKTNV-1" source="RgRpfeF5wvHuGxw3iGH3-19" target="RgRpfeF5wvHuGxw3iGH3-26">
          <mxGeometry relative="1" as="geometry" />
        </mxCell>
        <mxCell id="RgRpfeF5wvHuGxw3iGH3-29" value="Tidak" style="edgeStyle=orthogonalEdgeStyle;rounded=0;orthogonalLoop=1;jettySize=auto;html=1;exitX=0;exitY=1;exitDx=0;exitDy=0;entryX=0.5;entryY=0;entryDx=0;entryDy=0;" edge="1" parent="WIyWlLk6GJQsqaUBKTNV-1" source="RgRpfeF5wvHuGxw3iGH3-19" target="WIyWlLk6GJQsqaUBKTNV-7">
          <mxGeometry relative="1" as="geometry" />
        </mxCell>
        <mxCell id="RgRpfeF5wvHuGxw3iGH3-19" value="Berhasil?" style="rhombus;whiteSpace=wrap;html=1;" vertex="1" parent="WIyWlLk6GJQsqaUBKTNV-1">
          <mxGeometry x="130" y="-750" width="80" height="80" as="geometry" />
        </mxCell>
        <mxCell id="RgRpfeF5wvHuGxw3iGH3-23" value="" style="edgeStyle=orthogonalEdgeStyle;rounded=0;orthogonalLoop=1;jettySize=auto;html=1;" edge="1" parent="WIyWlLk6GJQsqaUBKTNV-1" source="RgRpfeF5wvHuGxw3iGH3-22" target="WIyWlLk6GJQsqaUBKTNV-3">
          <mxGeometry relative="1" as="geometry" />
        </mxCell>
        <mxCell id="RgRpfeF5wvHuGxw3iGH3-22" value="Start" style="ellipse;whiteSpace=wrap;html=1;aspect=fixed;" vertex="1" parent="WIyWlLk6GJQsqaUBKTNV-1">
          <mxGeometry x="-580" y="-860" width="80" height="80" as="geometry" />
        </mxCell>
        <mxCell id="RgRpfeF5wvHuGxw3iGH3-26" value="" style="shape=waypoint;sketch=0;size=6;pointerEvents=1;points=[];fillColor=default;resizable=0;rotatable=0;perimeter=centerPerimeter;snapToPoint=1;" vertex="1" parent="WIyWlLk6GJQsqaUBKTNV-1">
          <mxGeometry x="-500" y="-730" width="40" height="40" as="geometry" />
        </mxCell>
        <mxCell id="RgRpfeF5wvHuGxw3iGH3-168" style="edgeStyle=orthogonalEdgeStyle;rounded=0;orthogonalLoop=1;jettySize=auto;html=1;exitX=0.5;exitY=1;exitDx=0;exitDy=0;entryX=0;entryY=0.5;entryDx=0;entryDy=0;endArrow=classic;endFill=1;" edge="1" parent="WIyWlLk6GJQsqaUBKTNV-1" source="RgRpfeF5wvHuGxw3iGH3-30" target="RgRpfeF5wvHuGxw3iGH3-32">
          <mxGeometry relative="1" as="geometry" />
        </mxCell>
        <mxCell id="RgRpfeF5wvHuGxw3iGH3-30" value="Input email dan password" style="rounded=1;whiteSpace=wrap;html=1;shadow=0;strokeWidth=1;spacing=6;spacingTop=-4;" vertex="1" parent="WIyWlLk6GJQsqaUBKTNV-1">
          <mxGeometry x="-780" y="-390" width="120" height="60" as="geometry" />
        </mxCell>
        <mxCell id="RgRpfeF5wvHuGxw3iGH3-43" value="" style="edgeStyle=orthogonalEdgeStyle;rounded=0;orthogonalLoop=1;jettySize=auto;html=1;endArrow=classic;endFill=1;" edge="1" parent="WIyWlLk6GJQsqaUBKTNV-1" source="RgRpfeF5wvHuGxw3iGH3-32" target="RgRpfeF5wvHuGxw3iGH3-42">
          <mxGeometry relative="1" as="geometry" />
        </mxCell>
        <mxCell id="RgRpfeF5wvHuGxw3iGH3-32" value="Lihat Sisa Hutang" style="whiteSpace=wrap;html=1;rounded=1;shadow=0;strokeWidth=1;spacing=6;spacingTop=-4;" vertex="1" parent="WIyWlLk6GJQsqaUBKTNV-1">
          <mxGeometry x="-623.5" y="-200" width="120" height="60" as="geometry" />
        </mxCell>
        <mxCell id="RgRpfeF5wvHuGxw3iGH3-45" value="Ya" style="edgeStyle=orthogonalEdgeStyle;rounded=0;orthogonalLoop=1;jettySize=auto;html=1;endArrow=classic;endFill=1;" edge="1" parent="WIyWlLk6GJQsqaUBKTNV-1" source="RgRpfeF5wvHuGxw3iGH3-42" target="RgRpfeF5wvHuGxw3iGH3-44">
          <mxGeometry relative="1" as="geometry" />
        </mxCell>
        <mxCell id="RgRpfeF5wvHuGxw3iGH3-47" value="Tidak" style="edgeStyle=orthogonalEdgeStyle;rounded=0;orthogonalLoop=1;jettySize=auto;html=1;endArrow=classic;endFill=1;" edge="1" parent="WIyWlLk6GJQsqaUBKTNV-1" source="RgRpfeF5wvHuGxw3iGH3-42" target="RgRpfeF5wvHuGxw3iGH3-46">
          <mxGeometry relative="1" as="geometry" />
        </mxCell>
        <mxCell id="RgRpfeF5wvHuGxw3iGH3-42" value="Apakah ada tagihan?" style="rhombus;whiteSpace=wrap;html=1;" vertex="1" parent="WIyWlLk6GJQsqaUBKTNV-1">
          <mxGeometry x="-613.5" y="-60" width="100" height="100" as="geometry" />
        </mxCell>
        <mxCell id="RgRpfeF5wvHuGxw3iGH3-49" value="" style="edgeStyle=orthogonalEdgeStyle;rounded=0;orthogonalLoop=1;jettySize=auto;html=1;endArrow=classic;endFill=1;" edge="1" parent="WIyWlLk6GJQsqaUBKTNV-1" source="RgRpfeF5wvHuGxw3iGH3-44" target="RgRpfeF5wvHuGxw3iGH3-48">
          <mxGeometry relative="1" as="geometry" />
        </mxCell>
        <mxCell id="RgRpfeF5wvHuGxw3iGH3-44" value="Tampil tagihan perbulan" style="rounded=1;whiteSpace=wrap;html=1;" vertex="1" parent="WIyWlLk6GJQsqaUBKTNV-1">
          <mxGeometry x="-427.5" y="-40" width="120" height="60" as="geometry" />
        </mxCell>
        <mxCell id="RgRpfeF5wvHuGxw3iGH3-61" value="Tidak" style="edgeStyle=orthogonalEdgeStyle;rounded=0;orthogonalLoop=1;jettySize=auto;html=1;endArrow=classic;endFill=1;startArrow=none;" edge="1" parent="WIyWlLk6GJQsqaUBKTNV-1" source="RgRpfeF5wvHuGxw3iGH3-76" target="RgRpfeF5wvHuGxw3iGH3-60">
          <mxGeometry relative="1" as="geometry" />
        </mxCell>
        <mxCell id="RgRpfeF5wvHuGxw3iGH3-171" value="Tidak" style="edgeStyle=orthogonalEdgeStyle;rounded=0;orthogonalLoop=1;jettySize=auto;html=1;exitX=0.5;exitY=1;exitDx=0;exitDy=0;entryX=0;entryY=0.75;entryDx=0;entryDy=0;endArrow=classic;endFill=1;" edge="1" parent="WIyWlLk6GJQsqaUBKTNV-1" source="RgRpfeF5wvHuGxw3iGH3-46" target="RgRpfeF5wvHuGxw3iGH3-32">
          <mxGeometry relative="1" as="geometry" />
        </mxCell>
        <mxCell id="RgRpfeF5wvHuGxw3iGH3-46" value="ingin meminjam uang?" style="rhombus;whiteSpace=wrap;html=1;" vertex="1" parent="WIyWlLk6GJQsqaUBKTNV-1">
          <mxGeometry x="-618.5" y="110" width="110" height="110" as="geometry" />
        </mxCell>
        <mxCell id="RgRpfeF5wvHuGxw3iGH3-58" value="Tidak" style="edgeStyle=orthogonalEdgeStyle;rounded=0;orthogonalLoop=1;jettySize=auto;html=1;exitX=0.5;exitY=1;exitDx=0;exitDy=0;entryX=0.5;entryY=1;entryDx=0;entryDy=0;endArrow=classic;endFill=1;" edge="1" parent="WIyWlLk6GJQsqaUBKTNV-1" source="RgRpfeF5wvHuGxw3iGH3-48" target="RgRpfeF5wvHuGxw3iGH3-44">
          <mxGeometry relative="1" as="geometry" />
        </mxCell>
        <mxCell id="RgRpfeF5wvHuGxw3iGH3-166" value="Ya" style="edgeStyle=orthogonalEdgeStyle;rounded=0;orthogonalLoop=1;jettySize=auto;html=1;exitX=0.5;exitY=0;exitDx=0;exitDy=0;entryX=1;entryY=0.5;entryDx=0;entryDy=0;endArrow=classic;endFill=1;" edge="1" parent="WIyWlLk6GJQsqaUBKTNV-1" source="RgRpfeF5wvHuGxw3iGH3-48" target="RgRpfeF5wvHuGxw3iGH3-51">
          <mxGeometry relative="1" as="geometry" />
        </mxCell>
        <mxCell id="RgRpfeF5wvHuGxw3iGH3-48" value="Ingin membayar tagihan bulan ini?" style="rhombus;whiteSpace=wrap;html=1;" vertex="1" parent="WIyWlLk6GJQsqaUBKTNV-1">
          <mxGeometry x="-247.5" y="-75" width="130" height="130" as="geometry" />
        </mxCell>
        <mxCell id="RgRpfeF5wvHuGxw3iGH3-53" style="edgeStyle=orthogonalEdgeStyle;rounded=0;orthogonalLoop=1;jettySize=auto;html=1;exitX=0;exitY=0.5;exitDx=0;exitDy=0;endArrow=classic;endFill=1;" edge="1" parent="WIyWlLk6GJQsqaUBKTNV-1" source="RgRpfeF5wvHuGxw3iGH3-51" target="RgRpfeF5wvHuGxw3iGH3-32">
          <mxGeometry relative="1" as="geometry" />
        </mxCell>
        <mxCell id="RgRpfeF5wvHuGxw3iGH3-51" value="Kurangi hutang" style="rounded=1;whiteSpace=wrap;html=1;" vertex="1" parent="WIyWlLk6GJQsqaUBKTNV-1">
          <mxGeometry x="-427.5" y="-200" width="120" height="60" as="geometry" />
        </mxCell>
        <mxCell id="RgRpfeF5wvHuGxw3iGH3-63" style="edgeStyle=orthogonalEdgeStyle;rounded=0;orthogonalLoop=1;jettySize=auto;html=1;exitX=1;exitY=0.5;exitDx=0;exitDy=0;endArrow=classic;endFill=1;" edge="1" parent="WIyWlLk6GJQsqaUBKTNV-1" source="RgRpfeF5wvHuGxw3iGH3-60" target="RgRpfeF5wvHuGxw3iGH3-62">
          <mxGeometry relative="1" as="geometry" />
        </mxCell>
        <mxCell id="RgRpfeF5wvHuGxw3iGH3-60" value="Proses Peminjaman" style="rounded=1;whiteSpace=wrap;html=1;" vertex="1" parent="WIyWlLk6GJQsqaUBKTNV-1">
          <mxGeometry x="-257.5" y="135" width="120" height="60" as="geometry" />
        </mxCell>
        <mxCell id="RgRpfeF5wvHuGxw3iGH3-69" value="Ya" style="edgeStyle=orthogonalEdgeStyle;rounded=0;orthogonalLoop=1;jettySize=auto;html=1;endArrow=classic;endFill=1;" edge="1" parent="WIyWlLk6GJQsqaUBKTNV-1" source="RgRpfeF5wvHuGxw3iGH3-62" target="RgRpfeF5wvHuGxw3iGH3-68">
          <mxGeometry relative="1" as="geometry" />
        </mxCell>
        <mxCell id="RgRpfeF5wvHuGxw3iGH3-75" value="" style="edgeStyle=orthogonalEdgeStyle;rounded=0;orthogonalLoop=1;jettySize=auto;html=1;endArrow=classic;endFill=1;" edge="1" parent="WIyWlLk6GJQsqaUBKTNV-1" source="RgRpfeF5wvHuGxw3iGH3-62" target="RgRpfeF5wvHuGxw3iGH3-74">
          <mxGeometry relative="1" as="geometry" />
        </mxCell>
        <mxCell id="RgRpfeF5wvHuGxw3iGH3-62" value="Pinjaman &amp;lt;= 12 juta dan tenor &amp;lt;= 12 bulan?" style="rhombus;whiteSpace=wrap;html=1;" vertex="1" parent="WIyWlLk6GJQsqaUBKTNV-1">
          <mxGeometry x="-67.5" y="100" width="130" height="130" as="geometry" />
        </mxCell>
        <mxCell id="RgRpfeF5wvHuGxw3iGH3-71" value="" style="edgeStyle=orthogonalEdgeStyle;rounded=0;orthogonalLoop=1;jettySize=auto;html=1;endArrow=classic;endFill=1;" edge="1" parent="WIyWlLk6GJQsqaUBKTNV-1" source="RgRpfeF5wvHuGxw3iGH3-68" target="RgRpfeF5wvHuGxw3iGH3-70">
          <mxGeometry relative="1" as="geometry" />
        </mxCell>
        <mxCell id="RgRpfeF5wvHuGxw3iGH3-68" value="Pinjaman Sukses" style="rounded=1;whiteSpace=wrap;html=1;" vertex="1" parent="WIyWlLk6GJQsqaUBKTNV-1">
          <mxGeometry x="-62.5" y="290" width="120" height="60" as="geometry" />
        </mxCell>
        <mxCell id="RgRpfeF5wvHuGxw3iGH3-173" style="edgeStyle=orthogonalEdgeStyle;rounded=0;orthogonalLoop=1;jettySize=auto;html=1;exitX=0.5;exitY=1;exitDx=0;exitDy=0;endArrow=classic;endFill=1;" edge="1" parent="WIyWlLk6GJQsqaUBKTNV-1" source="RgRpfeF5wvHuGxw3iGH3-70" target="RgRpfeF5wvHuGxw3iGH3-172">
          <mxGeometry relative="1" as="geometry" />
        </mxCell>
        <mxCell id="RgRpfeF5wvHuGxw3iGH3-70" value="Notifikasi email dan sms pinjaman berhasil" style="rounded=1;whiteSpace=wrap;html=1;" vertex="1" parent="WIyWlLk6GJQsqaUBKTNV-1">
          <mxGeometry x="-62.5" y="430" width="120" height="60" as="geometry" />
        </mxCell>
        <mxCell id="RgRpfeF5wvHuGxw3iGH3-74" value="Pinjaman Gagal" style="rounded=1;whiteSpace=wrap;html=1;" vertex="1" parent="WIyWlLk6GJQsqaUBKTNV-1">
          <mxGeometry x="127.5" y="135" width="120" height="60" as="geometry" />
        </mxCell>
        <mxCell id="RgRpfeF5wvHuGxw3iGH3-79" value="Ya" style="edgeStyle=orthogonalEdgeStyle;rounded=0;orthogonalLoop=1;jettySize=auto;html=1;exitX=0.5;exitY=0;exitDx=0;exitDy=0;entryX=0.191;entryY=1.012;entryDx=0;entryDy=0;entryPerimeter=0;endArrow=classic;endFill=1;" edge="1" parent="WIyWlLk6GJQsqaUBKTNV-1" source="RgRpfeF5wvHuGxw3iGH3-76" target="RgRpfeF5wvHuGxw3iGH3-44">
          <mxGeometry relative="1" as="geometry" />
        </mxCell>
        <mxCell id="RgRpfeF5wvHuGxw3iGH3-76" value="Ada pinjaman belum lunas?" style="rhombus;whiteSpace=wrap;html=1;" vertex="1" parent="WIyWlLk6GJQsqaUBKTNV-1">
          <mxGeometry x="-447.5" y="125" width="85" height="85" as="geometry" />
        </mxCell>
        <mxCell id="RgRpfeF5wvHuGxw3iGH3-77" value="Ya" style="edgeStyle=orthogonalEdgeStyle;rounded=0;orthogonalLoop=1;jettySize=auto;html=1;endArrow=none;endFill=1;" edge="1" parent="WIyWlLk6GJQsqaUBKTNV-1" source="RgRpfeF5wvHuGxw3iGH3-46" target="RgRpfeF5wvHuGxw3iGH3-76">
          <mxGeometry relative="1" as="geometry">
            <mxPoint x="-508.5" y="165" as="sourcePoint" />
            <mxPoint x="-337.5" y="165" as="targetPoint" />
          </mxGeometry>
        </mxCell>
        <mxCell id="RgRpfeF5wvHuGxw3iGH3-172" value="End" style="ellipse;whiteSpace=wrap;html=1;aspect=fixed;" vertex="1" parent="WIyWlLk6GJQsqaUBKTNV-1">
          <mxGeometry x="-42.5" y="550" width="80" height="80" as="geometry" />
        </mxCell>
        <mxCell id="RgRpfeF5wvHuGxw3iGH3-174" value="&lt;h1&gt;&lt;b&gt;FLOWCHART DIGITAL LENDING PT XYZ&lt;/b&gt;&lt;/h1&gt;" style="text;html=1;align=center;verticalAlign=middle;resizable=0;points=[];autosize=1;strokeColor=none;fillColor=none;" vertex="1" parent="WIyWlLk6GJQsqaUBKTNV-1">
          <mxGeometry x="-520" y="-970" width="540" height="80" as="geometry" />
        </mxCell>
      </root>
    </mxGraphModel>
  </diagram>
</mxfile>
